# xmcd CD database file
#
# Track frame offsets:
#	150
#	13938
#	32177
#	44610
#	64231
#	79050
#	91797
#	105342
#	115435
#	130439
#	148381
#	160821
#	175856
#	194743
#
# Disc length: 2781 seconds
#
# Revision: 0
# Processed by: cddbd v1.4PL0 Copyright (c) Steve Scherf et al.
# Submitted via: CDex 1.50beta9
#
DISCID=cc0adb0e
DTITLE=Par Jordan and Finian' Rainbow - Home Is Where The heart Is
DYEAR=1900
DGENRE=Country
TTITLE0=Where The errigal Shadws Fal
TTITLE1=Lovely Cobh Harbour
TTITLE2=The Door Is Always Open
TTITLE3=Windows Up In Heavan
TTITLE4=Tears On The Window Pane
TTITLE5=Four Country road
TTITLE6=Have You Ever Been Lonely
TTITLE7=Home Is Where The Heart Is
TTITLE8=Red Roses
TTITLE9=My Lovely Rose
TTITLE10=Galway And You
TTITLE11=Just Like Yesterday
TTITLE12=When You Say Nothing At All
TTITLE13=DanielPut The Kettle On
EXTD=
EXTT0=
EXTT1=
EXTT2=
EXTT3=
EXTT4=
EXTT5=
EXTT6=
EXTT7=
EXTT8=
EXTT9=
EXTT10=
EXTT11=
EXTT12=
EXTT13=
PLAYORDER=
